<?xml version="1.0" encoding="UTF-8" standalone="no"?>
<!-- Created with Inkscape (http://www.inkscape.org/) -->

<svg
   xmlns:dc="http://purl.org/dc/elements/1.1/"
   xmlns:cc="http://creativecommons.org/ns#"
   xmlns:rdf="http://www.w3.org/1999/02/22-rdf-syntax-ns#"
   xmlns:svg="http://www.w3.org/2000/svg"
   xmlns="http://www.w3.org/2000/svg"
   xmlns:sodipodi="http://sodipodi.sourceforge.net/DTD/sodipodi-0.dtd"
   xmlns:inkscape="http://www.inkscape.org/namespaces/inkscape"
   width="580mm"
   height="260mm"
   viewBox="0 0 580 260"
   version="1.1"
   id="svg131"
   inkscape:version="0.92.5 (2060ec1f9f, 2020-04-08)"
   sodipodi:docname="drawing.svg">
  <defs
     id="defs125" />
  <sodipodi:namedview
     id="base"
     pagecolor="#ff00ff"
     bordercolor="#666666"
     borderopacity="1.0"
     inkscape:pageopacity="0"
     inkscape:pageshadow="2"
     inkscape:zoom="0.35"
     inkscape:cx="400"
     inkscape:cy="560"
     inkscape:document-units="mm"
     inkscape:current-layer="layer1"
     showgrid="false"
     inkscape:pagecheckerboard="true"
     inkscape:window-width="1858"
     inkscape:window-height="1057"
     inkscape:window-x="54"
     inkscape:window-y="-8"
     inkscape:window-maximized="1" />
  <metadata
     id="metadata128">
    <rdf:RDF>
      <cc:Work
         rdf:about="">
        <dc:format>image/svg+xml</dc:format>
        <dc:type
           rdf:resource="http://purl.org/dc/dcmitype/StillImage" />
        <dc:title></dc:title>
      </cc:Work>
    </rdf:RDF>
  </metadata>
  <g
     inkscape:label="Layer 1"
     inkscape:groupmode="layer"
     id="layer1"
     transform="translate(0,-37)">
    <path
       style="fill:#000000;stroke:none;stroke-width:0.08017677"
       inkscape:connector-curvature="0"
       id="path2"
       d="m 208.89448,263.25092 c -6.73484,-1.44318 -10.90404,-5.05113 -12.98863,-11.14455 -1.28283,-3.84849 -1.12248,-14.91288 0.3207,-20.52528 3.92866,-14.83269 18.20013,-37.76325 33.75442,-54.11931 8.17803,-8.57889 9.70139,-11.22474 8.41856,-14.59215 -2.08459,-5.37186 -7.21591,-8.01768 -16.27588,-8.49876 l -7.05556,-0.3207 v 2.64585 c 0,1.52334 0.56124,5.29167 1.28283,8.33838 2.32513,10.50315 2.32513,11.46528 0.3207,13.63005 -1.04229,1.12248 -2.64583,2.00442 -3.68812,2.00442 -2.80619,0 -4.32955,-7.85733 -5.2115,-27.2601 -0.88194,-20.0442 -1.68371,-25.09533 -4.89077,-31.66983 l -2.48549,-5.05113 -2.96654,1.04229 c -1.60353,0.56124 -4.40971,1.76388 -6.25379,2.72601 -4.24936,2.16477 -4.97095,2.08461 -4.97095,-0.2406 0,-2.16477 4.40972,-6.49431 8.17803,-8.01768 l 2.24495,-0.96213 -2.40531,-3.4476 c -4.00884,-5.45202 -14.35164,-15.874985 -19.96401,-20.204555 -2.96654,-2.16477 -7.21591,-4.57005 -9.46086,-5.29164 -4.65026,-1.44321 -5.13132,-2.56566 -2.88636,-5.85291 2.00442,-2.96655 2.72601,-3.28725 6.1736,-2.8062 5.29167,0.80178 12.42741,5.21151 20.0442,12.42741 6.25379,5.93307 18.11995,20.044205 18.11995,21.487385 0,0.3207 3.60795,0.40086 8.01767,0.3207 6.01326,-0.2406 8.9798,0 12.1067,1.04229 5.13131,1.76388 10.66351,6.97539 12.02651,11.46528 0.80177,2.72601 1.363,3.28725 4.16919,4.16919 1.84407,0.56124 6.89521,2.56566 11.3851,4.57008 8.17803,3.68814 20.0442,8.25822 21.24685,8.25822 0.32071,0 -1.12247,-2.88639 -3.28725,-6.49434 -5.37184,-8.97978 -7.13574,-14.1111 -7.13574,-20.52525 0,-8.81943 4.48991,-14.672344 11.22475,-14.672344 4.24937,0 8.41857,1.76388 11.30493,4.890784 2.24495,2.40531 2.48548,2.48547 3.84849,1.20264 0.72159,-0.72159 1.76388,-1.28283 2.24494,-1.28283 0.48106,0 0.96212,5.77275 1.28283,14.99307 l 0.48106,15.07323 -2.24495,2.32512 c -3.4476,3.4476 -4.89078,2.4855 -4.89078,-3.28725 0,-9.94191 -3.36742,-17.71905 -9.70139,-22.85037 -1.52336,-1.20264 -3.68813,-2.40531 -4.8106,-2.64582 l -2.16478,-0.56124 0.72159,3.92865 c 0.96213,5.21148 5.45202,14.51199 10.18246,21.0063 15.63447,21.56757 19.00189,31.02843 19.00189,52.59597 v 12.02652 l -2.72601,5.53218 c -4.97096,10.18248 -12.02652,14.91288 -17.9596,12.10671 -1.52336,-0.72159 -3.68813,-2.64582 -4.8106,-4.24938 -2.00442,-3.1269 -6.17362,-12.98862 -6.17362,-14.67234 0,-0.56124 -0.72159,-0.3207 -1.84406,0.72159 -1.0423,0.96213 -2.32512,1.76388 -2.80619,1.76388 -1.60354,0 -1.0423,-3.36741 0.88195,-5.45202 1.60353,-1.76388 1.76389,-2.72601 2.00441,-13.22916 0.24054,-10.98423 0.32071,-11.46528 2.40531,-13.63005 1.68371,-1.76388 4.00884,-2.88636 4.16919,-1.92423 0.0802,0.0801 0.40089,5.21148 0.80177,11.38509 0.72159,12.58776 2.64583,19.88385 6.81502,25.97727 3.28725,4.89078 6.17361,6.8952 8.17803,5.77272 3.04672,-1.60353 3.84849,-5.37183 3.76831,-17.71905 0,-17.71908 -3.04672,-27.01959 -13.4697,-41.93244 l -3.84848,-5.45202 -1.60353,3.28722 c -0.96212,1.92426 -2.32514,3.36744 -3.44761,3.68814 -1.60353,0.40089 -7.53662,-0.96213 -11.46527,-2.56566 -0.80177,-0.40089 -0.88195,3.36744 -0.48107,18.28032 0.64142,22.44948 -0.0802,29.42487 -3.36742,32.79228 -3.92866,4.08903 -4.40972,3.36744 -3.84848,-6.25377 0.3207,-4.81062 0.24054,-17.55873 -0.0802,-28.46277 l -0.56126,-19.88382 -4.24937,-1.92423 c -7.29609,-3.36744 -7.37626,-3.28725 -8.49874,0.0801 -0.48106,1.68369 -2.00441,4.57005 -3.28724,6.49431 -1.84406,2.64582 -2.0846,3.36741 -1.0423,3.36741 2.48548,0 7.69697,3.28725 9.22033,5.85291 1.12247,1.76391 1.60353,4.00884 1.60353,6.97539 0,6.01326 -2.80618,10.74369 -11.94633,19.96401 -7.05556,7.2159 -17.79925,21.72789 -23.33144,31.58964 -6.49432,11.46528 -9.62122,23.1711 -8.01768,30.387 1.68371,8.01768 7.13574,13.06881 14.99306,14.03094 7.77715,0.88194 23.65215,-4.81062 29.34469,-10.58334 5.21149,-5.21148 7.29609,-10.26261 7.37626,-17.39835 0,-5.9331 -0.0802,-6.2538 -2.80618,-9.05997 -3.76831,-3.84849 -7.61679,-4.97097 -13.95076,-3.84849 -7.29609,1.20264 -13.79041,4.65024 -18.44066,9.62121 -4.08901,4.24935 -6.09343,5.29167 -6.09343,3.04671 0,-3.84849 8.33838,-12.66792 15.71464,-16.5966 7.85733,-4.24935 18.84154,-5.77272 25.09533,-3.52776 1.52336,0.56124 3.92867,2.32512 5.2115,4.00884 2.08459,2.48547 2.48547,3.7683 2.726,8.41854 0.96212,16.83714 -13.38952,35.27778 -32.31123,41.69193 -5.69256,1.84404 -15.39394,2.72601 -20.20455,1.68369 z m 13.14899,-117.21843 c 2.16477,-0.2406 4.97096,-0.88194 6.25379,-1.52334 3.28724,-1.52337 5.5322,-6.2538 4.81061,-10.26264 -0.48107,-2.80617 -0.80178,-3.1269 -3.44761,-3.60795 -1.60353,-0.2406 -5.05114,-0.48105 -7.53661,-0.48105 -4.32954,0 -4.65025,-0.1602 -4.65025,-1.76391 0.0802,-3.04671 3.52777,-6.25377 6.81502,-6.25377 1.52336,0 2.80619,-0.32073 2.80619,-0.72159 0,-1.28283 -8.65909,-5.05116 -12.58776,-5.53221 -3.60795,-0.40089 -3.68812,-0.3207 -3.12689,1.52337 1.84407,6.49431 2.88636,14.91288 2.88636,23.73231 v 10.0221 l 2.00442,-2.40531 c 1.52337,-1.84407 2.80619,-2.40528 5.77273,-2.72601 z" />
    <path
       style="fill:#000000;stroke:none;stroke-width:0.08017677"
       inkscape:connector-curvature="0"
       id="path4"
       d="m 411.90205,246.25346 c -0.1602,-0.56124 -1.12248,-4.65024 -2.08461,-8.97981 -3.52779,-16.19571 -9.86175,-31.0284 -16.9173,-39.76767 -2.08458,-2.64582 -3.84849,-5.61237 -3.84849,-6.65466 0,-1.12248 1.28283,-3.1269 3.28725,-4.97097 1.76391,-1.76388 4.00884,-4.57008 4.81062,-6.2538 2.80617,-5.45202 4.81059,-16.19568 5.29167,-29.02398 0.72159,-20.28471 -2.56566,-38.2443 -9.14016,-49.06818 -1.44318,-2.405314 -2.64585,-5.211484 -2.64585,-6.173614 0,-2.00442 3.84849,-6.093421 5.69256,-6.093421 3.1269,0 9.22032,15.233585 11.70582,29.264525 2.08458,12.10668 1.92423,35.91918 -0.40089,46.02144 -1.84407,7.93752 -4.57008,14.59218 -7.85733,19.48296 l -2.08458,2.96655 3.20706,4.24935 c 5.93307,7.77717 10.82388,19.00191 14.59218,33.03285 l 2.16477,8.01768 0.56124,-3.52779 c 0.56124,-3.7683 3.7683,-8.01768 5.93307,-8.01768 2.08461,0 0.72159,8.57892 -2.56566,15.71466 -3.92865,8.49873 -8.57892,13.14897 -9.70137,9.78156 z" />
    <path
       style="fill:#000000;stroke:none;stroke-width:0.08017677"
       inkscape:connector-curvature="0"
       id="path6"
       d="m 52.309251,234.94853 c 0,-2.32512 11.866162,-15.95517 19.3226,-22.12878 15.714646,-13.22916 32.872479,-20.28471 54.440029,-22.52967 27.34028,-2.8062 53.23737,2.24496 62.13699,12.18687 3.52778,3.84846 3.68813,6.73485 0.56124,9.70137 -2.64583,2.56566 -4.65025,2.8062 -5.37184,0.56124 -0.80177,-2.64582 -6.73484,-7.05555 -12.7481,-9.54102 -9.38069,-3.92868 -18.20014,-5.21151 -34.5562,-5.21151 -19.96401,-0.0801 -32.95265,2.56566 -46.181816,9.14016 -10.342803,5.13132 -15.794823,9.30051 -26.057449,19.7235 -5.371843,5.45202 -10.182449,9.94191 -10.66351,9.94191 -0.48106,0 -0.881944,-0.80178 -0.881944,-1.84407 z" />
    <path
       style="fill:#000000;stroke:none;stroke-width:0.08017677"
       inkscape:connector-curvature="0"
       id="path8"
       d="m 461.37109,233.50535 c -1.84404,-0.96213 -5.77272,-4.24938 -8.65908,-7.45644 l -5.37183,-5.69256 -3.20709,3.04671 c -1.76388,1.60356 -3.68811,2.96655 -4.32954,2.96655 -1.92423,0 -1.04229,-3.68814 1.44318,-6.09342 3.20709,-3.04671 5.21148,-6.97539 5.93307,-11.94633 0.56124,-4.16922 3.52779,-8.41857 5.85291,-8.41857 0.96213,0 1.12248,0.96213 0.64143,5.53218 -0.48108,5.53221 -0.48108,5.53221 2.64582,9.46086 6.33396,7.93752 12.58776,12.26706 17.55873,12.26706 3.28725,0 4.16919,-2.00442 4.16919,-9.30051 0,-10.74369 -3.68814,-21.40719 -16.43625,-47.22411 -13.149,-26.77905 -16.43622,-35.51832 -16.43622,-43.93686 0,-6.17361 4.089,-11.78601 8.57889,-11.78601 2.08461,0 6.2538,1.84407 8.49876,3.84849 1.2828,1.12248 1.36299,1.04232 1.36299,-1.04229 0,-2.40531 3.4476,-6.81504 5.29167,-6.81504 0.6414,0 1.20264,1.52337 1.52337,3.76833 0.9621,7.5366 2.16477,13.54986 4.089,19.48296 2.40531,7.5366 2.40531,9.70137 0.0801,11.86614 -1.92426,1.76391 -5.37186,2.40531 -5.37186,0.96213 0,-0.40089 -0.72159,-2.72601 -1.68369,-5.21148 -1.68372,-4.48992 -8.09787,-12.26706 -12.8283,-15.71466 l -2.24496,-1.60353 1.60356,5.77272 c 2.16477,7.69698 3.84849,11.70582 14.51199,33.1932 14.83269,29.90592 19.16223,45.94128 15.47412,57.64707 -1.52337,4.89081 -6.2538,10.98423 -10.10229,12.90846 -3.20706,1.68372 -8.57889,1.44318 -12.58776,-0.48105 z" />
    <path
       style="fill:#000000;stroke:none;stroke-width:0.08017677"
       inkscape:connector-curvature="0"
       id="path10"
       d="m 493.28146,210.25409 c 0,-1.68372 3.04671,-4.97097 7.85733,-8.49873 3.20706,-2.40531 5.53218,-7.69698 6.25377,-13.95078 0.40089,-3.92865 0.96213,-5.61237 2.56566,-7.29606 3.60795,-3.84849 4.40973,-3.04674 4.00884,3.68811 -0.6414,9.94194 -6.65466,20.20455 -14.99304,25.49622 -4.24938,2.64582 -5.69256,2.8062 -5.69256,0.56124 z" />
    <path
       style="fill:#000000;stroke:none;stroke-width:0.08017677"
       inkscape:connector-curvature="0"
       id="path12"
       d="m 420.56113,208.00913 c -5.69256,-4.16919 -6.2538,-6.25377 -6.17361,-23.89266 0.1602,-12.74811 -0.0801,-15.47412 -0.96213,-15.47412 -1.84407,0 -1.28283,-2.96655 1.12248,-5.77272 1.28283,-1.44318 2.72601,-4.24938 3.28725,-6.2538 2.96655,-10.10226 10.50315,-20.0442 15.23358,-20.0442 7.77714,0 12.98865,15.55431 8.25822,24.61428 -2.96655,5.69253 -9.05997,9.05997 -16.35606,9.05997 -3.28725,0 -3.36744,0.1602 -4.32954,9.7014 -0.56124,6.33396 0.72159,13.22916 3.12687,16.9173 2.40531,3.52776 7.21593,6.17361 9.14016,4.97094 2.32512,-1.44318 4.97097,-6.97536 6.73485,-14.1111 1.12248,-4.40973 2.40531,-7.37628 3.7683,-8.81946 4.16919,-4.48989 5.21151,-2.08458 2.88636,6.89523 -1.76388,6.8952 -5.29167,13.95075 -9.22032,18.44064 -5.85291,6.65466 -10.90404,7.85733 -16.51641,3.7683 z m 13.7904,-46.58268 c 2.00442,-0.72159 2.16477,-1.12248 1.60353,-3.84849 -0.80175,-4.24938 -3.4476,-10.18245 -5.37183,-11.94636 -1.52337,-1.36299 -1.60353,-1.36299 -2.72601,0.0801 -1.12248,1.52337 -5.13132,12.98865 -5.13132,14.67237 0,1.76388 7.85733,2.48547 11.62563,1.04229 z" />
    <path
       style="fill:#000000;stroke:none;stroke-width:0.08017677"
       inkscape:connector-curvature="0"
       id="path14"
       d="m 378.38815,206.16506 c -1.12248,-1.84404 -2.48547,-4.48989 -2.96655,-5.93307 l -0.88194,-2.72601 -2.24493,1.60353 c -9.86173,7.37628 -19.48294,-4.81059 -19.64329,-24.85479 -0.0801,-6.65466 0.2406,-8.17803 2.00442,-12.10668 1.20264,-2.4855 3.12687,-5.21151 4.32954,-6.01326 1.20264,-0.88194 3.36741,-2.4855 4.81057,-3.68814 1.44318,-1.28283 3.20709,-2.24496 3.84849,-2.24496 0.72159,0 2.4855,1.44318 4.00884,3.28725 l 2.8062,3.20709 0.9621,-3.04674 c 0.56124,-1.68369 1.52337,-3.92865 2.1648,-4.89078 0.6414,-1.04229 1.04229,-2.08458 0.80175,-2.24493 -0.1602,-0.1602 -2.40531,-0.88197 -4.97097,-1.52337 -7.29609,-1.92423 -13.87054,-5.85291 -20.44504,-12.42741 -6.49432,-6.33396 -9.78158,-10.90404 -13.63006,-18.52083 -2.88637,-5.69253 -3.04672,-8.65908 -0.56123,-10.9842 3.36742,-3.126904 4.65024,-2.32512 8.49873,5.05113 8.01768,15.39393 21.16666,26.61867 34.47598,29.34468 l 4.97097,1.04232 -0.48105,2.80617 c -0.3207,1.44318 -1.20267,3.60795 -2.00442,4.81062 -6.81504,9.38067 -5.77272,43.85667 1.60353,53.23737 2.16477,2.72601 2.00442,5.29167 -0.56124,7.93749 -2.88636,3.04674 -4.32954,2.8062 -6.8952,-1.12248 z m -6.01326,-21.16665 c -0.3207,-9.54105 -3.04671,-18.76137 -6.8952,-23.25126 l -2.56564,-2.96655 -1.76388,2.24496 c -4.40973,5.61237 0.48105,26.77902 7.21588,30.86805 1.44318,0.88194 3.04671,1.44318 3.4476,1.28283 0.48108,-0.1602 0.72159,-3.36744 0.56124,-8.17803 z" />
    <path
       style="fill:#000000;stroke:none;stroke-width:0.08017677"
       inkscape:connector-curvature="0"
       id="path16"
       d="m 321.22214,199.75094 c -1.60355,-1.36302 -3.28726,-3.4476 -3.76832,-4.57008 -0.64141,-1.44318 -0.96212,-12.58776 -0.96212,-36.6408 V 123.9839 l -6.25379,-6.5745 c -13.22916,-13.87059 -18.2803,-26.618705 -12.82827,-32.311235 1.20265,-1.20267 2.56565,-2.24496 3.12689,-2.24496 0.56123,0 1.68371,2.16477 2.4053,4.81059 2.16477,7.696981 8.09785,15.714665 23.17108,31.188785 21.64773,22.12878 22.4495,23.97285 22.4495,47.78535 0,15.87498 0,16.11552 -2.24495,20.76579 -4.65025,10.02207 -10.66351,14.91288 -18.11995,14.91288 -3.36742,0 -4.4899,-0.40089 -6.97537,-2.56566 z m 14.99304,-5.9331 c 1.60354,-0.80175 3.1269,-2.64582 4.1692,-4.97094 1.52336,-3.36744 1.68371,-5.05113 1.60353,-15.07323 -0.24054,-19.32261 -2.56565,-25.97727 -12.82827,-37.04169 l -4.97097,-5.37183 -0.0802,10.50315 c 0,5.77272 -0.40088,16.9173 -0.88194,24.85479 -0.80177,13.87059 -0.72159,14.59218 0.88194,18.92172 1.68371,4.57008 6.09344,9.46086 8.49874,9.46086 0.64141,0 2.32512,-0.56124 3.60795,-1.28283 z" />
    <path
       style="fill:#000000;stroke:none;stroke-width:0.08017677"
       inkscape:connector-curvature="0"
       id="path18"
       d="m 61.930463,197.26544 c 0,-3.7683 -1.924243,-6.09342 -5.69255,-6.65466 -3.768308,-0.64143 -4.089016,-2.24496 -1.042298,-5.85291 1.683712,-2.08458 2.645833,-2.48547 5.532197,-2.48547 2.244949,0 4.089015,0.56124 5.612372,1.68372 l 2.164773,1.76388 -2.084595,-4.08903 c -2.565657,-5.13129 -2.645834,-8.17803 -0.240531,-10.42296 2.645834,-2.48547 5.051137,-2.24496 6.013258,0.56124 1.443182,4.24935 6.494318,11.3049 9.140151,12.90846 3.768309,2.24493 6.574494,2.08458 7.777146,-0.48108 2.405304,-5.45202 3.287247,-12.18687 3.287247,-27.01956 v -15.07323 l -2.966538,-1.28283 c -4.650252,-1.92423 -10.743688,-3.4476 -14.030935,-3.4476 -3.768309,0 -4.089015,-1.84407 -0.881945,-5.69256 2.164772,-2.48547 2.164772,-2.56566 7.937502,-2.08458 3.126894,0.3207 6.654669,0.88194 7.857321,1.36299 l 2.084595,0.80178 v -5.45202 c 0,-6.33396 -1.683711,-14.11113 -4.089015,-18.84156 -0.962121,-1.84404 -4.489899,-6.25377 -7.937499,-9.781564 -9.701389,-10.102261 -10.66351,-12.427381 -6.654671,-16.596571 2.48548,-2.64585 4.489898,-2.88639 5.532197,-0.64143 0.400883,0.80178 3.688131,4.57008 7.296087,8.33838 10.422978,10.663531 12.507573,16.516415 12.587751,34.315655 l 0.08019,10.98423 6.815027,4.16919 c 9.70139,5.93307 13.14899,7.93749 13.87058,7.93749 0.32071,0 0.48106,-9.94191 0.40088,-22.04859 l -0.0802,-22.04862 2.24495,-2.405314 c 4.57008,-4.73043 4.00884,-9.941911 5.77273,58.769584 l 0.48106,21.48738 -2.24495,2.32512 c -1.28283,1.36302 -2.72601,2.40531 -3.20707,2.40531 -0.96212,0 -2.00442,-11.62563 -2.00442,-23.01075 0,-5.29167 -0.16035,-5.85291 -1.60354,-5.85291 -2.72601,0 -9.86174,-3.04671 -14.8327,-6.41412 l -4.8106,-3.20709 -0.481066,12.66795 c -0.641415,15.87498 -1.844067,20.76576 -7.376262,28.86363 -5.692551,8.49873 -14.91288,8.89962 -21.407198,0.96213 l -2.004446,-2.4855 -0.08018,4.48989 c 0,3.68814 -0.320707,4.73046 -2.325127,6.81504 -3.046716,3.1269 -4.409721,3.1269 -4.409721,-0.2406 z" />
    <path
       style="fill:#000000;stroke:none;stroke-width:0.08017677"
       inkscape:connector-curvature="0"
       id="path20"
       d="m 486.86731,196.62404 c 0,-0.88194 1.60353,-3.28725 3.52779,-5.29167 2.64582,-2.64582 3.68811,-4.57008 4.089,-6.97536 0.56124,-3.36744 3.84849,-7.69698 5.77275,-7.69698 1.92423,0 1.20264,5.85288 -1.44318,11.14455 -3.52779,7.05558 -11.94636,13.30935 -11.94636,8.81946 z" />
    <path
       style="fill:#000000;stroke:none;stroke-width:0.08017677"
       inkscape:connector-curvature="0"
       id="path22"
       d="m 197.74991,188.20547 c -0.64142,-1.52334 -1.36301,-3.92865 -1.68371,-5.21148 l -0.48106,-2.40531 -3.28725,3.1269 c -4.65025,4.57008 -8.01768,6.01326 -12.26705,5.53218 -3.76831,-0.40086 -7.77714,-3.36741 -8.73926,-6.41412 -0.48106,-1.44318 -0.48106,-1.44318 -2.16477,0.0801 -2.96655,2.64582 -5.05114,3.36741 -9.78157,3.36741 -9.94192,0 -15.79483,-5.05113 -16.91731,-14.67234 -0.56123,-4.57008 -0.56123,-4.57008 -5.21148,-7.45644 -5.45202,-3.28725 -6.01326,-5.21148 -2.48548,-8.57892 2.56566,-2.48547 3.36742,-2.64582 6.57449,-0.9621 2.16477,1.12245 2.4053,1.12245 2.4053,0 0,-2.40531 3.36743,-11.30493 5.2115,-13.54989 1.6837,-2.08461 2.16477,-2.24496 5.29166,-1.76388 4.40973,0.72159 10.42299,4.97094 12.18687,8.73927 0.72159,1.52334 1.44318,4.4097 1.44318,6.33396 0.0802,3.04671 0.16035,2.88636 0.88195,-1.76391 0.40089,-2.88636 1.60354,-7.05555 2.72601,-9.38067 2.0846,-4.40973 6.73485,-9.05997 8.89962,-9.05997 0.72159,0 -1.0423,-1.12248 -3.84849,-2.56566 -9.3005,-4.65024 -16.59659,-13.54986 -27.90151,-34.075114 -2.64583,-4.89081 -4.89079,-9.781591 -4.89079,-10.743691 0,-2.08461 3.68814,-6.33399 5.5322,-6.33399 0.80177,0 3.20707,3.60798 6.33397,9.46086 6.89521,12.988655 12.34722,21.086495 17.87942,26.618705 5.13131,5.13132 12.58775,9.22032 18.36048,10.0221 3.20707,0.48105 3.84848,0.2406 5.5322,-1.52337 1.12247,-1.12248 2.64583,-2.08458 3.52778,-2.08458 1.52335,0 1.52335,0.40089 1.12247,7.45644 -1.92425,28.78344 -1.44319,39.84786 2.24495,49.06818 2.48548,6.17361 2.48548,6.65466 -0.16035,9.38067 -2.96654,3.04671 -4.89079,2.88636 -6.33397,-0.6414 z m -8.09785,-8.33838 c 2.726,-2.16477 3.36743,-5.85291 2.24494,-12.58776 -1.20265,-6.81501 -7.9375,-20.92611 -11.54545,-23.97285 l -2.56565,-2.16477 -1.12247,2.72601 c -1.84408,4.08903 -1.68372,21.32703 0.24054,27.5808 1.60353,5.45205 2.88636,7.53663 5.45201,8.97981 2.64584,1.44318 4.97096,1.28283 7.29609,-0.56124 z m -21.24685,-2.64582 c 0.64142,-0.72159 0.64142,-2.64585 0.16035,-6.17361 -0.40089,-2.88636 -0.80177,-6.81504 -0.80177,-8.81946 v -3.60795 l -1.52336,2.40531 c -3.28724,5.29167 -8.09785,8.41857 -12.98863,8.41857 -1.36302,0 -2.32514,0.40086 -2.32514,1.04229 0,1.36299 3.68814,4.81059 6.81503,6.41415 2.96655,1.60353 9.46086,1.76388 10.66351,0.3207 z m -7.45643,-16.5966 c 1.0423,-1.60353 -2.64584,-7.93749 -6.09344,-10.42299 l -3.52779,-2.48547 -0.48105,1.84407 c -0.24054,1.04229 -0.72159,3.68814 -1.0423,5.93307 -0.48106,3.84849 -0.40088,4.08903 1.68371,4.89078 2.88637,1.12248 8.81945,1.28283 9.46087,0.2406 z m 33.99494,-22.36932 c 0.0802,-4.089 0,-4.24938 -1.68371,-3.7683 -1.0423,0.2406 -2.80619,0.48105 -4.00884,0.48105 h -2.08459 l 3.28724,5.05113 c 3.76831,5.61237 4.40973,5.37186 4.4899,-1.76388 z" />
  </g>
</svg>
